<svg xmlns="http://www.w3.org/2000/svg" viewBox="0 0 500 254"><defs><style>.a{isolation:isolate;}.b,.f,.k,.m,.n{fill:none;}.c,.e,.g{fill:#231f20;}.c{opacity:0.77;}.d{fill:#ff5c00;}.d,.h{opacity:0.7;mix-blend-mode:multiply;}.f,.i,.k,.l,.m,.n,.o,.p{stroke:#fff;}.f,.n{stroke-linecap:round;}.f{stroke-linejoin:round;stroke-dasharray:4.98 6.98;}.g{opacity:0.44;}.h{fill:#a6a8ab;}.i,.o,.q{fill:#ec1c24;}.i,.k,.l,.m,.n,.o,.p{stroke-miterlimit:10;}.i{stroke-width:0.75px;}.j{fill:#fff;}.l,.p{fill:#ff0013;}.l,.o{stroke-width:4px;}.m{stroke-width:2px;}.n,.p{stroke-width:3px;}</style></defs><title>hero-logo</title><g class="a"><rect class="b" x="-8.6" y="-62.7" width="500" height="500"/><polygon class="c" points="164.9 221.6 80.8 195.2 91.7 193.2 199.2 171.2 165.6 169.9 164.9 221.6"/><polygon class="d" points="211.5 194.5 83.6 196 94.5 194.3 202 172.3 211.5 194.5"/><path class="e" d="M415.7,147.7,84.9,195.6a10,10,0,0,1-11.4-9.9v-86A10,10,0,0,1,82,89.8L412.9,42a9.9,9.9,0,0,1,11.4,9.8v86A10,10,0,0,1,415.7,147.7Z"/><path class="f" d="M422.1,143.9l-326,46.9c-6,.9-11.4-3.4-11.5-9.1l-.8-94.9a9.5,9.5,0,0,1,8.4-9.3L418.3,30.6c6-.8,11.4,3.5,11.5,9.1l.8,94.9A9.6,9.6,0,0,1,422.1,143.9Z"/><polygon class="g" points="409.9 178.2 431.6 146.7 396.2 153.3 409.9 178.2"/><polygon class="h" points="409.2 179.3 419.7 146.1 373 153.6 409.2 179.3"/><path class="i" d="M402.2,180.2,156.8,214.8c-5.1.8-9.8,0-10-1.5l-2.8-29c-.2-1.3,2.9-2.7,7-3.3l245.5-34.6c5.1-.7,9.8,0,10,1.6l2.8,29C409.4,178.2,406.4,179.6,402.2,180.2Z"/><path class="j" d="M65.3,123.7c2.8,6.3,5.5,12.6,8.2,19,1.2,2.9,2.4,5.8,3.5,8.7a25,25,0,0,1,1.5,3.8c.9,3.6-.9,4.1-3.4,5.5L49.2,174c-3.6,2-7.3,3.9-11,5.8s-3.7,2.5-6.1-1a16.9,16.9,0,0,1-1.2-2.7l-3.3-8-5.7-13.5c-.9-2.2-1.7-4.6-2.8-6.7s-1.2,0-.7-.6,4.7-2.3,6.2-3l24.2-11.7,17.4-8.4c.8-.4.4-1.8-.5-1.4L17.6,146.1a.7.7,0,0,0-.4.9l8.4,20.2c1.5,3.6,3,7.2,4.6,10.7.6,1.5,1.2,3.6,2.7,4.4s3.3.1,4.7-.6,5-2.6,7.5-3.9l18.5-9.5,8.6-4.5c2.2-1.2,6.1-2.3,7.7-4.3s-.7-6.6-1.7-9c-3.6-9.1-7.6-18.2-11.6-27.2C66.3,122.4,64.9,122.9,65.3,123.7Z"/><path class="j" d="M18.3,146.4c-.7-.8-4.3-4.3-4.2-5.2s1.9-2.2,2.3-2.7,3.6-4.1,5.5-6.1c3.9-4.4,7.9-8.8,12-13.1s6.8-7.2,10.3-10.7c.9-.9,2.1-2.5,3.2-3.1s4.3,2.6,5.4,4.2,1.7-.1,1.2-.8c-1.7-2.4-4.7-6.7-7.6-4.4s-5.9,5.7-8.6,8.6c-8.6,9-17.2,18.1-25.2,27.6a.7.7,0,0,0,0,.9l4.5,5.7c.6.7,1.8-.1,1.2-.9Z"/><path class="j" d="M21.1,154.2,69,131.9c.8-.4.3-1.8-.5-1.4L20.6,152.8c-.8.4-.4,1.8.5,1.4Z"/><polygon class="j" points="15.5 138.3 25.4 138.6 28.1 135.9 18.8 135.2 15.5 138.3"/><polygon class="j" points="25.9 143.2 23.2 152 27.4 150 29.3 141.3 25.9 143.2"/><polygon class="j" points="37.2 137.5 34.2 147 38.8 144.7 42 135.1 37.2 137.5"/><polygon class="j" points="48.7 131.9 45.2 142.1 50.3 139.3 53.8 129.3 48.7 131.9"/><polygon class="j" points="60 126.6 56.8 136.7 61.5 134.3 64.7 124.4 60 126.6"/><polygon class="j" points="23.5 129.7 33.9 130.1 36.9 127 26.2 126.4 23.5 129.7"/><polygon class="j" points="31.2 121.5 42 121.9 44.5 119 33.7 118.5 31.2 121.5"/><polygon class="j" points="39.3 112.8 49.8 113.3 52.2 110.7 41.7 110.2 39.3 112.8"/><path class="j" d="M26.1,155.8A52.3,52.3,0,0,1,34,152c.8-.4.3-1.8-.5-1.4a52.8,52.8,0,0,0-8.3,4c-.7.5.1,1.7.9,1.2Z"/><path class="j" d="M35.5,150.1c.8-.3.4-1.7-.5-1.4a.7.7,0,0,0,.5,1.4Z"/><path class="j" d="M36,151.4c.9-.3.4-1.7-.4-1.4s-.4,1.7.4,1.4Z"/><path class="j" d="M39.6,149.4l27.9-12.8c.8-.3.4-1.7-.5-1.4L39.1,148c-.8.4-.3,1.8.5,1.4Z"/><path class="j" d="M28.3,159.9l7.4-3.8c.8-.5,0-1.7-.8-1.3l-7.5,3.8c-.8.5.1,1.7.9,1.3Z"/><path class="j" d="M36.5,152.6v.2c-.4.8.9,1.5,1.3.7v-.2c.4-.8-.9-1.5-1.3-.7Z"/><path class="j" d="M37.9,155.6H38a.7.7,0,0,0-.5-1.4h-.1c-.8.3-.4,1.7.5,1.4Z"/><path class="j" d="M41.8,153.5,69.4,140c.8-.4.3-1.8-.5-1.4L41.3,152.1c-.8.4-.3,1.8.5,1.4Z"/><path class="j" d="M30.5,165c2.5-1.3,4.9-2.7,7.3-4.2.7-.5-.1-1.7-.8-1.2-2.4,1.5-4.9,2.9-7.3,4.2-.9.4,0,1.6.8,1.2Z"/><path class="j" d="M42.3,159.2c3.1-1.6,6.2-3.1,9.5-4.5.8-.3.3-1.7-.5-1.4-3.4,1.4-6.6,3-9.8,4.7-.8.4,0,1.7.8,1.2Z"/><path class="j" d="M59.1,151.6a56.4,56.4,0,0,0,10.9-5c.8-.4,0-1.7-.8-1.2a53.1,53.1,0,0,1-10.6,4.8c-.9.2-.4,1.6.5,1.4Z"/><path class="j" d="M31.6,167.2q21-9,41.3-19.5c.8-.4,0-1.6-.8-1.2-13.4,6.9-27.1,13.4-41,19.3-.8.4-.4,1.8.5,1.4Z"/><path class="j" d="M30.4,166.9l4.9,10.3c.4.8,1.7.4,1.3-.5l-4.9-10.3c-.4-.8-1.7-.4-1.3.5Z"/><path class="j" d="M40.4,162.5c1.5,3.3,2.9,6.6,4.3,9.9.4.9,1.7.5,1.4-.4-1.5-3.3-2.9-6.6-4.3-9.9-.4-.9-1.7-.5-1.4.4Z"/><path class="j" d="M54.3,156.3a66,66,0,0,1,4.3,8.9.7.7,0,0,0,1.4-.5,86.8,86.8,0,0,0-4.5-9.2c-.5-.8-1.6,0-1.2.8Z"/><path class="j" d="M71.9,147.6c1.3,3.1,2.7,6.2,4,9.2.3.9,1.7.4,1.3-.4l-3.9-9.2c-.4-.9-1.8-.4-1.4.4Z"/><path class="j" d="M36.8,178.4l40.1-21.2c.9-.4,0-1.6-.8-1.2L35.9,177.2c-.8.4,0,1.6.9,1.2Z"/><path class="j" d="M17.7,147c-2.2,1.5-1.2,3.5-.3,5.6,2,4.6,4,9.1,5.9,13.7s3.3,8.4,5.4,12.4c1.2,2.4,2.8,4.1,5.6,3.8.9-.1.8-1.6-.1-1.5-4.1.4-5.8-6.5-7-9.3l-3.1-7.2c-.9-2.1-7.7-14.8-5.6-16.2s0-1.8-.8-1.3Z"/><path class="j" d="M12.5,140.7a2.4,2.4,0,0,0-.3,3.2,28,28,0,0,0,4.1,5c.6.7,1.5-.4.9-1.1s-4.8-5-3.8-5.8-.1-1.8-.9-1.3Z"/><path class="j" d="M22.9,145c10.6-11.2,21.9-21.8,32-33.5a.8.8,0,0,0,.1-.7l-.6-1.3c-.3-.6-.8-.7-1.2-.3L18.5,145.3c-.6.6.5,1.6,1.1,1,11.6-12,23.1-24.2,34.7-36.1l-1.3-.3c.6,1.3.4,1.2-.5,2.2a57.4,57.4,0,0,0-4.1,4.5c-2.9,3.2-5.9,6.3-9,9.4-5.9,6-11.8,11.9-17.6,18.1-.6.6.5,1.6,1.1.9Z"/><path class="j" d="M25.7,142c12.5-6.5,25.6-11.8,38.1-18.3.8-.4,0-1.6-.8-1.2-12.5,6.5-25.6,11.8-38.1,18.2-.8.5,0,1.7.8,1.3Z"/><path class="j" d="M63.3,123.9l2.6.3c.9.1,1.2-1.4.3-1.5l-2.7-.3a.8.8,0,0,0-.2,1.5Z"/><path class="j" d="M444.6,138.1l-.3-12.8c0-2.1-.1-4.2-.1-6.2a31.9,31.9,0,0,1-.2-6.2c.2-1.3.1.3.2.7a9.1,9.1,0,0,0,.1,1.7c.1,1.7.1,3.3.2,4.9.2,6.4.3,12.8.4,19.2,0,.7,1.2.7,1.2,0-.1-4.9-.2-9.8-.4-14.7-.1-3-.1-6-.3-9s.1-3.7-1.4-4.7h-.6c-.8.7-.6,1.5-.6,2.5l.3,8.4c.1,5.4.2,10.8.4,16.2a.6.6,0,1,0,1.1,0Z"/><path class="j" d="M477.3,132.3l.6-17.5c.1-2,0-4.1.2-6.2s.3.4.3,1.3v1.5c-.2,6.8-.4,13.7-.7,20.5,0,.7,1.1.7,1.2,0l.3-11.2.3-7.7c0-1.5.4-3.8-.1-5.2s-1.3-2.1-2.1-1-.4,3.8-.4,4.8c-.3,6.9-.5,13.8-.7,20.7-.1.7,1.1.7,1.1,0Z"/><path class="j" d="M445,114.6a99.1,99.1,0,0,0,32-5,.6.6,0,0,0-.3-1.1,97.3,97.3,0,0,1-31.7,4.9c-.7,0-.7,1.1,0,1.2Z"/><path class="j" d="M445.4,128.1c10.6-1.5,21.2-3.4,31.6-5.8.7-.1.4-1.2-.3-1.1-10.4,2.4-21,4.4-31.6,5.8-.7.1-.4,1.2.3,1.1Z"/><path class="j" d="M445.3,139.8a76.7,76.7,0,0,0,33.3-7.4c.6-.3.1-1.3-.6-1a75.4,75.4,0,0,1-32.7,7.2c-.7,0-.7,1.2,0,1.2Z"/><path class="j" d="M433.6,133.7c3.6,2.4,7.6,4,11.4,6,.6.3,1.2-.6.6-1-3.8-2-7.9-3.5-11.4-6-.6-.4-1.2.6-.6,1Z"/><path class="j" d="M435.5,133.1a168.5,168.5,0,0,0,32.2-6.4c.7-.3.4-1.4-.3-1.1a165.5,165.5,0,0,1-31.9,6.4c-.7.1-.7,1.2,0,1.1Z"/><path class="j" d="M467.3,126.6a76.9,76.9,0,0,0,9,4.7c.6.3,1.2-.7.5-1a64.2,64.2,0,0,1-9-4.7c-.6-.4-1.1.6-.5,1Z"/><path class="j" d="M433.2,127c0,1.9,0,3.8.1,5.7a.6.6,0,0,0,1.1,0c0-1.9-.1-3.8-.1-5.7s-1.2-.7-1.1,0Z"/><path class="j" d="M434.3,127.2l.4,6.6c.1.7,1.2.7,1.2,0l-.4-6.6c-.1-.7-1.2-.7-1.2,0Z"/><path class="j" d="M444,129.9l-9.2-3.8c-4.5-1.9-.4-.5,1.1,0l7.4,2.8c.6.3.9-.8.3-1.1l-4.4-1.7c-1.9-.7-4.1-1.9-6.2-2.1s-1.8,1.1-.8,2.1,3.3,1.5,4.7,2.1l6.8,2.8c.6.3.9-.8.3-1.1Z"/><path class="j" d="M466.7,124.1V126c0,.7,1.1.7,1.2,0v-1.9c0-.7-1.1-.7-1.2,0Z"/><path class="j" d="M468.4,124v2.8a.6.6,0,0,0,1.1,0V124a.6.6,0,1,0-1.1,0Z"/><path class="j" d="M471.3,124l5.1,2.2c.6.3,1.2-.7.6-1l-5.1-2.2c-.7-.3-1.3.7-.6,1Z"/><path class="j" d="M473.3,123.2l3.1,1.7c.6.3,1.2-.7.6-1l-3.1-1.6c-.7-.4-1.2.6-.6.9Z"/><path class="j" d="M477.9,132.1c-9.2,9.5-18.8,18.6-28.2,27.9-.3.3-.7.9-1.1,1.1s-.6.8.1-.6a11.3,11.3,0,0,1,2.3-2.6l3.5-3.4,12.2-12.1,8.6-8.5c.6-.5-.2-1.3-.8-.8L452.3,155c-1.6,1.6-3.9,3.3-4.8,5.4s-.4,2.5,1.1,2.1,2.3-2.1,3-2.9l7.1-6.9c6.7-6.5,13.5-13,20-19.8.5-.5-.3-1.3-.8-.8Z"/><path class="j" d="M445.6,139.8c5,2.5,9.8,5.4,14.8,7.9.7.3,1.3-.7.6-1-5-2.5-9.8-5.4-14.9-7.9-.6-.3-1.2.7-.5,1Z"/><path class="j" d="M462.5,148.6c4,2.5,8.1,4.8,12.2,7.2.8.5,3.7,2.1,3.3-.1s-2-1.9-2.8-2.4l-4.1-2.6-6.7-4.1a.5.5,0,1,0-.6.9l10.7,6.7,1.7,1.2-3.2-1.9c-3.3-1.9-6.7-3.8-9.9-5.8-.7-.4-1.2.6-.6.9Z"/><path class="j" d="M449.4,140c4.3,1.9,8.3,4.3,12.4,6.6.6.4,1.2-.6.5-1-4-2.3-8.1-4.6-12.3-6.6-.7-.3-1.2.7-.6,1Z"/><path class="j" d="M455,142l3-3.1c.5-.5-.3-1.3-.8-.8l-3,3.1a.6.6,0,0,0,.8.8Z"/><path class="j" d="M456.3,142.9l4.4-4.2c.5-.5-.3-1.3-.8-.8l-4.4,4.2c-.6.5.2,1.3.8.8Z"/><path class="j" d="M452.7,143.2c-2.8,2.7-5.5,5.5-8.2,8.4-.8.9-3.9,3.2-2.8,4.8s3.3-1.4,4-2.1l9.3-9.6c.5-.5-.3-1.3-.8-.8l-5.7,5.9c-.7.7-4.7,5.6-5.5,5.1s9.6-10,10.5-11a.5.5,0,1,0-.8-.7Z"/><path class="j" d="M445.5,154l4.3,3.4c.6.4,1.4-.3.8-.8l-4.3-3.4c-.5-.4-1.3.4-.8.8Z"/><path class="j" d="M446.7,152.9l4.2,3.3c.5.5,1.3-.3.8-.8l-4.2-3.3c-.6-.4-1.4.4-.8.8Z"/><path class="j" d="M450.1,117.9l.3,4a.4.4,0,1,0,.8,0l-.3-4a.4.4,0,0,0-.8,0Z"/><path class="j" d="M450.8,118.1c1-.9,2,.5,1.8,1.4a2.9,2.9,0,0,1-1.9,2c-.5.2,0,1,.4.7s2.8-2.1,2.2-3.8a1.9,1.9,0,0,0-3.1-.9c-.5.3.1.9.6.6Z"/><path class="j" d="M454,117.3c0,1.3.1,2.7.1,4.1s.9.6.8,0,0-2.8-.1-4.1-.9-.6-.8,0Z"/><path class="j" d="M455.8,117.4c.1,1.2.3,2.5.4,3.7s.9.6.9,0-.3-2.5-.4-3.7-1-.6-.9,0Z"/><path class="j" d="M456.5,117.8a.5.5,0,0,1,1,.1c.2.5-.3.9-.8.6a.4.4,0,0,0-.4.8,1.5,1.5,0,0,0,2.1-1.7,1.5,1.5,0,0,0-2.7-.3c-.2.5.5.9.8.5Z"/><path class="j" d="M456.9,119l1.6,2.1c.3.4.9-.2.6-.6l-1.6-2.1c-.3-.4-.9.2-.6.6Z"/><path class="j" d="M459.1,117a7.6,7.6,0,0,0,.5,3.9.5.5,0,0,0,.7.2,3,3,0,0,1,1.6-.5c.6.1.6-.8,0-.8a2.9,2.9,0,0,0-2.1.6l.7.3a6.7,6.7,0,0,1-.5-3.7c0-.6-.8-.6-.9,0Z"/><path class="j" d="M459.4,117.4h2.3a.4.4,0,0,0,0-.8h-2.3a.4.4,0,1,0,0,.8Z"/><path class="j" d="M459.6,119.1l1.6-.5c.5-.2.3-1-.2-.8l-1.6.5c-.5.2-.3,1,.2.8Z"/><path class="j" d="M464.8,116.9a1,1,0,0,0-1.5-.6c-.8.4-.9,1.5-.9,2.3a1.9,1.9,0,0,0,1,1.9,1.2,1.2,0,0,0,1.6-.7c.2-.5-.6-.7-.8-.2s-.4.2-.6.1a1.5,1.5,0,0,1-.3-1.1v-1c0-.1.5-1,.7-.5s.9.3.8-.2Z"/><path class="j" d="M465.3,116.7l1.7-.3c.5,0,.3-.9-.2-.8l-1.8.3c-.5.1-.3.9.3.8Z"/><path class="j" d="M465.5,116.4l.6,3.3c.1.5.9.3.8-.3a30.6,30.6,0,0,1-.5-3.2c-.1-.5-1-.3-.9.2Z"/><path class="j" d="M469.9,115.7a1.1,1.1,0,0,0-1.9.1,3.2,3.2,0,0,0,.3,3,1.3,1.3,0,0,0,2.1-.2c.6-.9.1-1.9-.5-2.7s-1,0-.7.4a5.3,5.3,0,0,1,.6,1c.1.4,0,1.1-.5,1.1s-.7-.8-.7-1.2a1.3,1.3,0,0,1,.1-.6c0-.2.3-.8.5-.5a.4.4,0,1,0,.7-.4Z"/><path class="j" d="M471,115.1v3.4c.1.5.9.5.9,0v-3.4c-.1-.5-.9-.5-.9,0Z"/><path class="j" d="M471.9,115.1c.1-.2.4,0,.5.1a.8.8,0,0,1-.1.7,1.6,1.6,0,0,1-.9.5.4.4,0,0,0-.2.7,4.5,4.5,0,0,0,2.1,1.2c.5.2.7-.6.2-.8a4.2,4.2,0,0,1-1.7-1l-.2.7c1-.3,2.1-1.2,1.6-2.3a1.1,1.1,0,0,0-2.1,0c-.2.5.6.7.8.2Z"/><circle class="k" cx="117.2" cy="76.9" r="9.9" transform="translate(22.1 179.9) rotate(-80.5)"/><path class="l" d="M126.3,74.7a8.3,8.3,0,0,1-9.7,6.8A8.4,8.4,0,1,1,119.5,65,8.3,8.3,0,0,1,126.3,74.7Z"/><circle class="l" cx="375.2" cy="17.2" r="9.4" transform="translate(224.6 361.3) rotate(-69)"/><circle class="m" cx="76.5" cy="64.2" r="5.9"/><path class="j" d="M79.3,106.3l15-5.9L94,99l-15.5,6.1Z"/><path class="j" d="M81,108.1l13.2-5.2a6.1,6.1,0,0,0,.1-1.4v-.2L79.8,107Z"/><path class="j" d="M83.8,109.5l9.3-3.7A10.1,10.1,0,0,0,94,104l-12.1,4.7Z"/><path class="j" d="M78.2,104.3l15.5-6.1c-.2-.5-.5-.9-.7-1.3l-15.2,6A10.3,10.3,0,0,0,78.2,104.3Z"/><path class="j" d="M85.5,109.8H86a8.5,8.5,0,0,0,6.1-2.6Z"/><path class="j" d="M77.7,101.5v.5l14.7-5.8-1.1-1.1-13.5,5.3A3.7,3.7,0,0,0,77.7,101.5Z"/><path class="j" d="M87.2,93.3H86a8.5,8.5,0,0,0-6.5,3.1Z"/><path class="j" d="M78,99.4l12.5-4.9a7.6,7.6,0,0,0-1.8-.9l-10,4A4.8,4.8,0,0,0,78,99.4Z"/><line class="n" x1="139.1" y1="238.9" x2="224.8" y2="226.6"/><line class="n" x1="194.7" y1="213.5" x2="211.5" y2="211"/><line class="n" x1="150.3" y1="228.7" x2="206.9" y2="220.2"/><line class="n" x1="265.7" y1="68.6" x2="434.8" y2="44.2"/><line class="n" x1="372.5" y1="62.3" x2="467.9" y2="48.5"/><line class="n" x1="298.8" y1="72.9" x2="354.4" y2="64.9"/><polygon class="o" points="426.7 90.3 458.6 77.1 455 98 426.7 90.3"/><polygon class="p" points="250 54.8 236.2 43.2 251.3 40.1 250 54.8"/><path class="q" d="M115.9,108a9.1,9.1,0,0,1,5.4-3.2,18.6,18.6,0,0,1,4.5-.2,6.7,6.7,0,0,1,2.5.8,3.3,3.3,0,0,1,1.3,1.8,18.8,18.8,0,0,1,.4,4.8l-.9,51.8a14.7,14.7,0,0,1-.2,3.3,8.5,8.5,0,0,1-.9,2.5c-.9,1.8-3.4,3-7.4,3.6s-6.4.1-7.3-1.4a7.2,7.2,0,0,1-.9-2.4c0-.8-.1-1.9,0-3.4l.5-33.2-1.3,1.3c-2.6,2.3-4.8,3.5-6.6,3.8s-3.8-.6-5.7-2.5-3-3.6-2.9-5.3,1.2-3.7,3.5-6l15.7-15.9Z"/><path class="q" d="M136.3,164.1a5.5,5.5,0,0,1-1.7-3.5c.1-1.1,1-2.7,3-4.8a5.5,5.5,0,0,1,3.5-2c1.2-.2,2.9.6,5.1,2.5a7.3,7.3,0,0,0,2.6,1.7,5.5,5.5,0,0,0,3.2.6c4.1-.6,6.2-2.5,6.3-5.8a2.5,2.5,0,0,0-1.7-2.3,10.1,10.1,0,0,0-4.2-.8,28.2,28.2,0,0,1-5.4-.8,30.8,30.8,0,0,1-5.4-1.6,8.1,8.1,0,0,1-4.1-3.7,12.2,12.2,0,0,1-1.6-6.9c0-3.8,1.5-7.3,4.5-10.6a19.1,19.1,0,0,1,11.9-5.9,22.3,22.3,0,0,1,7.3,0,11.3,11.3,0,0,1,4.5,1.4l1.6,1c1.4,1.1,2,2,2,2.9a7.8,7.8,0,0,1-1.6,3.8c-1.6,2.4-3.1,3.7-4.7,3.9a6.3,6.3,0,0,1-3.5-.8l-.7-.6-1-.7a6.9,6.9,0,0,0-3.6-.3,7.3,7.3,0,0,0-3.6,1.5,3.9,3.9,0,0,0-1.4,3,2.7,2.7,0,0,0,1.6,2.7,11.9,11.9,0,0,0,4.2.9,36.5,36.5,0,0,1,5.5.4,40.7,40.7,0,0,1,5.5,1.2,8,8,0,0,1,4.1,3.5,13.1,13.1,0,0,1,1.6,6.9,17.9,17.9,0,0,1-1.9,7.7,15.7,15.7,0,0,1-4.5,5.6,23.8,23.8,0,0,1-11.6,5,19.6,19.6,0,0,1-5.9.1,13.4,13.4,0,0,1-4.5-1.2,14.1,14.1,0,0,1-4.8-3.3Z"/><path class="q" d="M174.8,117.8l36.9-5.2a7.8,7.8,0,0,1,3.1,0,2,2,0,0,1,1.3,1.4,9.6,9.6,0,0,1,.3,2.7,7,7,0,0,1-.4,2.7,3.1,3.1,0,0,1-1.1,1.6,9.1,9.1,0,0,1-3.4,1l-12.7,1.8-.5,32.8a10.9,10.9,0,0,1-.2,2.2,4.2,4.2,0,0,1-2.4,3.3,11,11,0,0,1-3.3.9,9,9,0,0,1-3.3,0,2.3,2.3,0,0,1-1.7-1.1,3.3,3.3,0,0,1-.5-1.6,12.8,12.8,0,0,1-.1-2.2l.5-32.7-12.7,1.8a6,6,0,0,1-3.1-.1,1.7,1.7,0,0,1-1.3-1.3,12.3,12.3,0,0,1,0-5.4,3.4,3.4,0,0,1,1.2-1.6A8.6,8.6,0,0,1,174.8,117.8Z"/><path class="q" d="M229.5,89.7l52.7-7.4a8.7,8.7,0,0,1,4.4.1,2.8,2.8,0,0,1,1.9,1.9,12.9,12.9,0,0,1,.4,3.8,14,14,0,0,1-.5,4,4.3,4.3,0,0,1-1.7,2.2,12.3,12.3,0,0,1-4.8,1.5l-18.1,2.5-.8,46.8a23.3,23.3,0,0,1-.2,3.2,8.5,8.5,0,0,1-.9,2.5,4.6,4.6,0,0,1-2.5,2.2,16.4,16.4,0,0,1-4.8,1.3,18.2,18.2,0,0,1-4.6.1,3.5,3.5,0,0,1-2.5-1.6,7.9,7.9,0,0,1-.8-2.3,27.3,27.3,0,0,1-.1-3.2l.8-46.7-18.2,2.6a10.6,10.6,0,0,1-4.5-.1,2.7,2.7,0,0,1-1.8-1.9,10.5,10.5,0,0,1-.5-3.9,13.3,13.3,0,0,1,.6-3.9,4.1,4.1,0,0,1,1.6-2.2A13.5,13.5,0,0,1,229.5,89.7Z"/><path class="q" d="M311.3,102.1l17.4,33.8a7.5,7.5,0,0,1,1,3.2q0,2.3-3.9,4.8a12.8,12.8,0,0,1-3.6,1.6,3.6,3.6,0,0,1-2.1-.3,2.9,2.9,0,0,1-1.1-1.1,13,13,0,0,1-1-1.8l-3.4-6.6-18.4,2.6-3.5,7.5-1.1,2.1a4.6,4.6,0,0,1-1.2,1.3,4,4,0,0,1-2.1.9,6.4,6.4,0,0,1-3.6-.6c-2.5-.8-3.8-2-3.8-3.6a11.8,11.8,0,0,1,1.2-3.5l18.5-38.9a8.3,8.3,0,0,1,2.3-2.7,6.8,6.8,0,0,1,3.2-1.3A4.6,4.6,0,0,1,311.3,102.1Zm-5.6,16.4-4.5,9.5,8.8-1.2Z"/><path class="q" d="M354.5,116.4a168,168,0,0,1,14.2,12.4c1.4,1.4,2.2,2.6,2.1,3.7s-.9,2.6-2.7,4.3-3.2,2.7-4.4,2.9-2.4-.6-4-2.2l-14.3-14.3-.2,12.7c-.1,1-.1,1.8-.2,2.3a9.4,9.4,0,0,1-.6,1.8c-.7,1.2-2.4,2-5.2,2.4s-4.9-.1-5.5-1.7a11.7,11.7,0,0,1-.3-3.2l.6-36.2a14.2,14.2,0,0,1,.1-2.3,6,6,0,0,1,.7-1.8c.6-1.3,2.3-2.1,5.2-2.5s4.9.1,5.5,1.7a10.2,10.2,0,0,1,.2,3.3l-.2,12.4c6.2-7.5,11.1-13.6,14.9-18.3,1.6-2,2.9-3.1,4.1-3.3a7,7,0,0,1,4.3,1.6c1.8,1.3,2.6,2.5,2.6,3.6s-.7,2.5-2,4.2c-2.6,3.3-6.7,7.8-12.2,13.6Z"/><path class="q" d="M387.7,124.2l20.4-2.9,2.3-.2a3.8,3.8,0,0,1,1.7.4q1.8.6,1.8,4.8c-.1,3-.9,4.9-2.6,5.7a14.2,14.2,0,0,1-3.4.8l-26.3,3.7c-3.1.4-4.9-.1-5.4-1.7a8.8,8.8,0,0,1-.4-3.3l.6-36.2a7.3,7.3,0,0,1,1.3-4.7q1.4-1.3,4.8-1.8l26.2-3.7,2.3-.2a3.8,3.8,0,0,1,1.7.4c1.2.4,1.8,2,1.7,4.8s-.9,4.9-2.5,5.7a15.2,15.2,0,0,1-3.5.8l-20.3,2.9v6.6l13.1-1.9,2.3-.2a3.8,3.8,0,0,1,1.7.4c1.2.4,1.8,2,1.7,4.8s-.9,4.9-2.6,5.7a10.2,10.2,0,0,1-3.4.9l-13,1.8Z"/><path class="j" d="M340.6,13.3c-4.1-5.1-14.4-3.3-14.8,3.9a7.5,7.5,0,0,0,4.6,7.5,9.3,9.3,0,0,0,9.9-2,7.4,7.4,0,0,0,.3-9.4c-.2-.4-.8,0-.6.4a6.6,6.6,0,0,1-.9,9.1c-3.2,2.7-8.8,2.5-11.3-.9s-1.8-7.3,1.2-9.3,8.4-2.1,11,1.1C340.3,14,340.9,13.7,340.6,13.3Z"/><path class="j" d="M336.6,16a3.6,3.6,0,0,0-4.8-.5,2.9,2.9,0,0,0-.6,4.1,3.6,3.6,0,0,0,4.8.6,2.9,2.9,0,0,0,.6-4.2c-.2-.4-.8,0-.5.4a2.3,2.3,0,0,1-.4,3.2,2.9,2.9,0,0,1-3.9-.3,2.3,2.3,0,0,1,.3-3.2,3,3,0,0,1,4,.3C336.3,16.7,336.9,16.4,336.6,16Z"/><path class="j" d="M335,17.1a1.5,1.5,0,0,0-1.9-.2,1.2,1.2,0,0,0-.2,1.7,1.4,1.4,0,0,0,1.8.2,1.2,1.2,0,0,0,.3-1.7c-.2-.3-.8,0-.6.4s-.5,1.2-1,.7.6-1.2,1-.7S335.3,17.5,335,17.1Z"/><path class="j" d="M330,24.2a3.7,3.7,0,0,0-1.3,1.5c-.2.3,0,.5.3.5a17.3,17.3,0,0,1,6.4,1.2c.3.1.6-.1.5-.4l-.6-2.1c-.1-.4-.8-.2-.6.2l.6,2.1.5-.4a20.1,20.1,0,0,0-6.9-1.3l.4.5a4.5,4.5,0,0,1,1.1-1.3c.3-.2-.1-.8-.4-.5Z"/><path class="j" d="M328.6,25.9l-1.4,6.6c-.4,1.8-1.2,4-1.2,5.9s1,1.4,2,1.7,3.2,1.1,4.4.6,1.7-4.4,1.9-5.8,1-5.2,1.6-7.8c.1-.4-.5-.5-.6-.1-.9,3.7-1.5,7.4-2.3,11.1-.1.3-.1.7-.2,1s-1.5,1-2.4.8a12.2,12.2,0,0,1-2.6-.6c-1.5-.9-.9-2.2-.6-3.4.7-3.3,1.4-6.6,2-9.8.1-.5-.5-.6-.6-.2Z"/><path class="j" d="M306.9,20.6l-2.2.9a.4.4,0,0,0,.1.7l13.6,3.1,6.7,1.5c.9.2,1.9.4,2.4-.6a.3.3,0,0,0-.6-.3c-.5,1.1-5.1-.5-6-.7l-5.3-1.3-10.7-2.4v.6l2.2-.8a.4.4,0,0,0-.2-.7Z"/><path class="j" d="M304.5,21.8c-.5,3-1.1,6-1.6,9.1-.2,1.3-.8,3.1.5,4s2.1.6,3,.8l4.2.8c2.9.6,5.8,1.2,8.7,1.6,1.3.2,4.1,1.2,5.2-.1s.6-2.2.9-3.1c.7-2.9,1.5-5.8,2.2-8.8,0-.4-.6-.6-.7-.1-.5,2.2-1.1,4.4-1.7,6.6s-.6,2.3-.8,3.4-.2.8-.9,1.4-2.5.3-3.8.1c-4.4-.6-8.7-1.6-13.1-2.5a9,9,0,0,1-1.6-.3,2.8,2.8,0,0,1-1.6-2.4,16.4,16.4,0,0,1,.5-3.2c.4-2.4.9-4.8,1.3-7.1,0-.5-.6-.6-.7-.2Z"/><path class="j" d="M325.9,32l1.7.2c.5.1.6-.6.2-.6l-1.8-.2c-.4-.1-.6.6-.1.6Z"/><path class="j" d="M325.1,34.9l1.6.3c.4.1.5-.6.1-.7l-1.5-.3a.4.4,0,0,0-.2.7Z"/><path class="j" d="M326.2,30.9l1.4.2c.4.1.6-.6.1-.7l-1.4-.2c-.4,0-.6.6-.1.7Z"/><path class="j" d="M311.8,23.1a4.6,4.6,0,0,1,.9-2.3c1.4-1.3,4.4-.2,6,.2l5.2,1.3a6.1,6.1,0,0,1,1.3.3c.8.3,2,1.2,2,2.1a11.3,11.3,0,0,1-.4,1.5c-.1.4.6.5.7.1s1.1-3-.4-3.9a15.6,15.6,0,0,0-3.7-1l-4.5-1c-1.8-.5-4.6-1.6-6.3-.5a4.8,4.8,0,0,0-1.5,3.1.4.4,0,0,0,.7.1Z"/><path class="j" d="M312.4,20.7c4.8,1,9.7,2.3,14.5,3a.4.4,0,0,0,.2-.7,145.3,145.3,0,0,1-14.6-3c-.4-.1-.5.6-.1.7Z"/><path class="j" d="M318.7,22.6l-.4,1.1a.4.4,0,0,0,.2.5l2.3.5c.2,0,.4-.1.4-.3l.2-1.1c.1-.2-.1-.3-.2-.4a8.7,8.7,0,0,0-2.2-.5c-.5,0-.4.7,0,.7a6.5,6.5,0,0,1,2,.5l-.2-.4-.3,1.1.4-.3-2.2-.5.2.5.4-1.1c.1-.4-.5-.7-.6-.3Z"/><path class="j" d="M322.5,23.6l-.3,1.2a.5.5,0,0,0,.3.4l2.9.6a.3.3,0,0,0,.4-.2l.3-1.3c.1-.2-.1-.4-.3-.4a24.7,24.7,0,0,0-2.9-.6c-.4-.1-.5.6-.1.7l2.9.6-.3-.4a5.3,5.3,0,0,1-.3,1.2l.5-.2-3-.7.3.4.3-1.2c.1-.4-.6-.6-.7-.1Z"/><path class="j" d="M307.2,19.8c-1.5,2.1,2.2,2.8,3.6,2.3s.2-.8-.3-.6a2.5,2.5,0,0,1-1.7,0c-.5-.1-1.7-.4-1.1-1.2s-.2-.9-.5-.5Z"/><path class="j" d="M307.4,20.3a5,5,0,0,0,2.6.8c.6,0,1.6-.2,1.3-1s-1.6-1-2.2-1-1.5-.1-1.8.6.4.7.6.3,1-.3,1.4-.2.7.1.9.3.3.1.1.2-1,0-1.3,0a3.1,3.1,0,0,1-1.3-.6.3.3,0,1,0-.3.6Z"/><path class="j" d="M323.9,27.6a1.6,1.6,0,0,0-2.3.5,1.7,1.7,0,0,0,.5,2.4,1.8,1.8,0,0,0,2.4-.5,1.7,1.7,0,0,0-.5-2.4c-.4-.2-.9.3-.5.5s.8.8.5,1.4a1.1,1.1,0,0,1-1.5.4c-1.2-.6-.1-2.4,1.1-1.7a.3.3,0,0,0,.3-.6Z"/><path class="j" d="M305.8,24.8l-.2.8a.6.6,0,0,0-.1.6c.1.4.6.4,1,.5a1,1,0,0,0,1-.2,1.5,1.5,0,0,0,.1-.6l.2-.8c0-.2-.1-.4-.3-.4l-1.3-.3c-.4-.1-.5.6-.1.7l1.3.3-.3-.4-.2.8V26h-.8c-.1,0-.1,0,0,.1v-.2l.3-.8a.4.4,0,0,0-.7-.2Z"/><path class="j" d="M308.1,25.3a1.9,1.9,0,0,1-.2.7,1.3,1.3,0,0,0,.1.6,1.2,1.2,0,0,0,1.1.4.3.3,0,0,0,.3-.3l.3-1.2a.5.5,0,0,0-.3-.5h-.9c-.4-.1-.5.6-.1.7h.9l-.3-.4-.2,1.3.3-.3c-.2,0-.5.1-.5-.2s.1-.2.1-.3a1.1,1.1,0,0,0,.1-.5c0-.5-.7-.4-.7,0Z"/><path class="j" d="M319.7,28.2c-2.9-5-11.9-1.9-9.6,4,1.1,2.7,4.8,3.5,7.3,2.5a4.7,4.7,0,0,0,2.3-6.4c-.2-.4-.8-.2-.6.2a4,4,0,0,1-2.3,5.6c-2.1.8-5.4,0-6.1-2.4-1.6-5.1,6-7.3,8.4-3.1C319.3,29,319.9,28.6,319.7,28.2Z"/><path class="j" d="M318.7,28.7c-2.3-4-9.4-1.6-7.5,3.1.8,2.1,3.8,2.8,5.7,2a3.7,3.7,0,0,0,1.8-5.1c-.1-.3-.8-.1-.6.3a3,3,0,0,1-1.7,4.2c-1.6.6-4.1,0-4.7-1.8-1.2-3.9,4.6-5.5,6.4-2.3C318.3,29.4,318.9,29.1,318.7,28.7Z"/><path class="j" d="M317.7,29.2a3.2,3.2,0,0,0-4.9-.6,2.6,2.6,0,0,0,1.5,4.3C317,33.5,318.7,31.2,317.7,29.2Z"/><path class="j" d="M313.7,29.5a1.1,1.1,0,0,0-.1,1.8c.3.3.7-.2.4-.5a.5.5,0,0,1,.1-.8c.3-.2-.1-.8-.4-.5Z"/><path class="j" d="M310.9,21.8l.7.2a.2.2,0,0,0,.4-.1.4.4,0,0,0-.1-.5l-.7-.2c-.2-.1-.4-.1-.5.1a.4.4,0,0,0,.2.5Z"/><path class="j" d="M303,33.5A98.3,98.3,0,0,0,315,36l9.1,1.5c.5.1.6-.6.2-.6l-9.1-1.6a123.2,123.2,0,0,1-12.1-2.4c-.4-.2-.5.5-.1.6Z"/><path class="j" d="M328.5,15.6a4.6,4.6,0,0,0,1.1,5.6.4.4,0,0,0,.5-.5,3.8,3.8,0,0,1-1-4.8.3.3,0,1,0-.6-.3Z"/><path class="j" d="M330.7,22.2h.4c.4.1.6-.6.1-.7h-.3a.4.4,0,0,0-.2.7Z"/><path class="j" d="M333.3,29.2c-.3,2-.7,4-1.1,6a.4.4,0,0,0,.7.2c.4-2,.7-4,1.1-6.1.1-.4-.6-.5-.7-.1Z"/><path class="j" d="M331.8,36.4v.2c-.1.4.6.6.7.1h0a.4.4,0,0,0-.7-.2Z"/><path class="j" d="M326.5,38.3a18.2,18.2,0,0,0,6.5,1.2c.4,0,.4-.7-.1-.7a17.3,17.3,0,0,1-6-1.1c-.5-.2-.8.4-.4.6Z"/><path class="j" d="M338.4,21.1h.4c.4.1.6-.6.1-.7h-.4c-.4-.1-.6.6-.1.7Z"/><path class="j" d="M338.7,20.2h.3c.4.1.6-.6.1-.7h-.2c-.4-.1-.6.6-.2.7Z"/><path class="j" d="M338.8,19h.3c.4.1.5-.6.1-.7H339a.4.4,0,0,0-.2.7Z"/><path class="j" d="M338.7,17.1h.1c.4.1.5-.6.1-.7h-.1c-.4-.1-.6.6-.1.6Z"/><path class="j" d="M310.6,20.3v1.3c-.1.4.6.5.7.1V20.4c.1-.4-.6-.5-.7-.1Z"/><path class="j" d="M309.6,20.9c-.1.2-.1.5-.2.7a.4.4,0,0,0,.7.2,2.2,2.2,0,0,0,.1-.8c.1-.4-.6-.6-.6-.1Z"/><path class="j" d="M308.1,20.6v.8c0,.5.6.6.7.2v-.9c.1-.4-.6-.6-.7-.1Z"/><path class="j" d="M184.2,36.8c.4,2.7,2.3,6.9,5,8.1a1.9,1.9,0,0,0,2.5-1.9c.2-1.4-.6-2.9-1.3-4.1A11.6,11.6,0,0,0,187,35c-1.5-.8-2.9-.1-2.8,1.7s.7.4.7,0c-.2-2.7,2.5-.7,3.4.3s3.4,4.4,2.7,6.4-2.4.4-3.3-.6a13.7,13.7,0,0,1-2.9-6.2C184.8,36.2,184.2,36.4,184.2,36.8Z"/><path class="j" d="M185.1,35.9a4.2,4.2,0,0,1,1.3.7,8.5,8.5,0,0,1,2.7,3.5c.6,1.1,1.4,2.9,1,4.2s.5.5.6.1c.7-2-1-4.9-2.1-6.4s-3-3.7-4-2.6a.4.4,0,0,0,.5.5Z"/><path class="j" d="M185.8,40.1a1,1,0,0,1,1.5.4,1.1,1.1,0,0,1-.4,1.5c-.4.2,0,.8.3.6a1.8,1.8,0,0,0,.7-2.4,1.7,1.7,0,0,0-2.4-.7c-.4.3,0,.8.3.6Z"/><path class="j" d="M184.6,35.3l-5.8,3.9c-1,.7-2.1,1.4-1.8,2.8s.7.3.6-.1,2.7-2.9,3.7-3.6l3.6-2.4c.4-.2,0-.8-.3-.6Z"/><path class="j" d="M177.3,44.1c.9,2.6,4,5.9,6.9,4.5a57.6,57.6,0,0,0,6.3-3.7c.3-.2,0-.7-.4-.5l-4.5,2.7c-1.1.6-2,1.4-3.3,1.1a6.3,6.3,0,0,1-4.4-4.3c-.1-.4-.7-.2-.6.2Z"/><path class="j" d="M177.9,41.9c-3.1.5-2.9,3.2-2.9,5.8s.1,2.4.1,3.6,0,1.4.5,1.9,2.9.3,4,.3,4.2.1,6.2,0,2.7.1,3.3-.9.3-2.7.4-3.7.1-2.2.1-3.2a.3.3,0,1,0-.6,0l-.3,4.8c0,.6.1,1.5-.4,1.9s-1.4.4-1.9.4a32.3,32.3,0,0,1-4.4,0h-4.4c-1,.1-1.4.3-1.8-1a19.3,19.3,0,0,1-.1-2.4c0-2.5-.9-6.4,2.3-7,.4-.1.3-.7-.1-.6Z"/><path class="j" d="M178.4,43.4c-.8-.2-1.2.3-1.4,1a10.6,10.6,0,0,0,.1,3.1v3.9a.3.3,0,0,0,.3.3,37.5,37.5,0,0,0,5.8.1c1.1,0,2.8.2,3.8-.3s.7-3.7.7-4.9a.4.4,0,1,0-.7,0,16.1,16.1,0,0,1,0,3.1c0,.9,0,1.1-.7,1.3a18,18,0,0,1-2.2.2h-5.6c-.5-.1-.6,0-.8-.5s0-1.5,0-1.9-.4-4.9.4-4.8.6-.5.2-.6Z"/><path class="j" d="M177.9,42.3a1.1,1.1,0,0,1,.3,1.5.3.3,0,1,0,.5.3,1.6,1.6,0,0,0-.5-2.3c-.3-.3-.7.3-.3.5Z"/><path class="j" d="M178.9,43.3l6.2-4.1c.3-.2,0-.8-.3-.6l-6.2,4.1a.3.3,0,0,0,.3.6Z"/><path class="j" d="M180.1,47.5l6.8-4.5c.3-.2,0-.8-.3-.6l-6.8,4.5a.3.3,0,0,0,.3.6Z"/><path class="j" d="M180.3,53.1v2.1c0,.4.7.4.7,0V53.1c0-.4-.7-.4-.7,0Z"/><path class="j" d="M183.6,53.5v1.8a.3.3,0,0,0,.6,0V53.5c0-.5-.6-.5-.6,0Z"/><path class="j" d="M177.1,56.1l8.7-.4c.1,0,2.1-.2,1.9-.4v.4a12.3,12.3,0,0,1,.2,1.9,10.9,10.9,0,0,0,.1,1.8c.1.1,0,.3.1.5s.5-.2.2-.3H186l-7.8.3a5.7,5.7,0,0,0-1.3,0c-.6.3,0-.2-.1.3.2-1.5.2-3.1.3-4.6s-.6-.4-.6,0-.2,3.1-.3,4.7a.3.3,0,0,0,.3.3l11.9-.4c.2,0,.4-.1.3-.3s-.2-3.1-.4-4.7a.3.3,0,0,0-.3-.3l-10.9.4c-.4,0-.5.7,0,.7Z"/><path class="j" d="M176.9,57a100.2,100.2,0,0,1,11-.4c.4,0,.4-.7,0-.7-3.7.1-7.4.1-11,.4-.4.1-.4.7,0,.7Z"/><path class="j" d="M187.7,28.1l-.8,3.2c-.1.4.5.6.6.2l.8-3.3a.3.3,0,1,0-.6-.1Z"/><path class="j" d="M191.7,30.1l-2,2.3c-.3.3.2.7.5.4l1.9-2.2c.3-.3-.1-.8-.4-.5Z"/><path class="j" d="M194.9,33.7l-2.8,1.7c-.3.2,0,.7.3.5l2.8-1.7c.4-.2,0-.7-.3-.5Z"/><path class="j" d="M196,38.5a12.8,12.8,0,0,0-2.4,1.1c-.3.2,0,.8.4.6a6.2,6.2,0,0,1,2.2-1c.4-.1.2-.8-.2-.7Z"/><path class="j" d="M194.8,43.2h1.6c.4.1.4-.6,0-.6h-1.6a.4.4,0,1,0,0,.7Z"/><path class="j" d="M293.2,204.1c-.7,1.9.2,5.3.4,7.2l.6,5.3c.2,1.2.1,2.7.6,3.8s6.1.4,7.8.2c14.2-1.6,28.4-3.5,42.5-5.6l7.5-1.1c.7-.2,2.6-.2,3.2-.9s.1-5,0-6.3a54.6,54.6,0,0,0-1.1-9.9c-.2-1.2-.4-1.5-1.4-1.4a36.2,36.2,0,0,0-4.6.6l-18.9,2.7-36.2,5c-.7.1-.5,1.2.1,1.1l27.2-3.8,19.8-2.8c4-.5,8.5-.6,12.3-1.7l.9-.2c-.8-.2-.2,0-.2.5a5.7,5.7,0,0,0,.3,1.8c.4,3.2.7,6.5.9,9.7a15.3,15.3,0,0,1,0,3.7c-.1.4.2.4-.7.5a47.1,47.1,0,0,0-5,.8c-13.1,2.1-26.3,3.7-39.4,5.3l-9,1.1c-1.4.1-3.6.8-4.9.4s-.1.1,0,.2a8,8,0,0,1-.3-1.5c-.3-1.7-.5-3.4-.7-5.1s-.4-3.9-.5-5.8-.5-2.6-.2-3.4S293.4,203.4,293.2,204.1Z"/><path class="j" d="M295.7,206.9c-.1.5.5,10,1.1,10.2s10.8-1,11.1-1.2-.5-10.4-.7-10.7S295.7,206.4,295.7,206.9Z"/><path class="j" d="M308.2,202.4c.4,5.4.8,10.9,1.3,16.3a.6.6,0,0,0,1.1-.1c-.5-5.5-.9-10.9-1.4-16.4,0-.7-1.1-.5-1,.2Z"/><path class="j" d="M295.3,206h.9c.7-.1.6-1.2-.1-1.1l-1,.2a.5.5,0,1,0,.2,1Z"/><path class="j" d="M297.9,205.7l.9-.2a.5.5,0,1,0-.1-1h-1c-.7.1-.5,1.1.2,1.1Z"/><path class="j" d="M300.5,205.2h1c.7-.1.5-1.2-.1-1.1l-1,.2a.5.5,0,1,0,.1,1Z"/><path class="j" d="M303.1,204.9h1c.7-.1.5-1.2-.2-1.1l-.9.2a.5.5,0,1,0,.1,1Z"/><path class="j" d="M305.8,204.6h1c.7-.1.6-1.2-.1-1.1h-1c-.7.1-.5,1.2.1,1.1Z"/><path class="j" d="M296.8,219.8h1c.7-.1.5-1.2-.2-1.1h-1c-.6.1-.5,1.2.2,1.1Z"/><path class="j" d="M299.4,219.4h1c.7-.1.5-1.2-.2-1.1h-.9c-.7.1-.6,1.2.1,1.1Z"/><path class="j" d="M302.1,219h.9c.7-.1.6-1.2-.1-1.1h-1c-.7.1-.5,1.2.2,1.1Z"/><path class="j" d="M304.7,218.7h.9c.7-.1.6-1.2-.1-1.1h-1c-.7.1-.5,1.2.2,1.1Z"/><path class="j" d="M307.4,218.4l1-.2a.5.5,0,0,0-.2-1h-1c-.6.1-.5,1.2.2,1.1Z"/><path class="j" d="M311.1,205.2c-.1.5.5,9.9,1.2,10.2s10.7-1.1,11-1.3-.4-10.4-.7-10.6S311.2,204.7,311.1,205.2Z"/><path class="j" d="M323.6,200.6c.4,5.5.9,10.9,1.3,16.4.1.7,1.2.5,1.1-.2-.4-5.4-.9-10.9-1.3-16.3-.1-.7-1.2-.6-1.1.1Z"/><path class="j" d="M310.7,204.3l1-.2a.5.5,0,0,0-.2-1h-1c-.6.1-.5,1.2.2,1.1Z"/><path class="j" d="M313.3,203.9h1c.7-.1.5-1.2-.2-1.1h-.9c-.7.1-.6,1.2.1,1.1Z"/><path class="j" d="M316,203.5l.9-.2c.7,0,.6-1.1-.1-1h-1c-.7.1-.5,1.2.2,1.1Z"/><path class="j" d="M318.6,203.2l.9-.2a.5.5,0,1,0-.1-1h-1c-.7.1-.5,1.2.2,1.1Z"/><path class="j" d="M321.3,202.9l1-.2a.5.5,0,0,0-.2-1h-1c-.6.1-.5,1.1.2,1.1Z"/><path class="j" d="M312.2,218h1c.7-.1.5-1.2-.1-1.1l-1,.2a.5.5,0,1,0,.1,1Z"/><path class="j" d="M314.8,217.7l1-.2a.5.5,0,1,0-.1-1h-1c-.7.1-.5,1.1.1,1.1Z"/><path class="j" d="M317.5,217.2h1c.7-.1.5-1.2-.2-1.1l-.9.2a.5.5,0,1,0,.1,1Z"/><path class="j" d="M320.1,216.9h1c.7-.1.5-1.2-.2-1.1l-.9.2a.5.5,0,1,0,.1,1Z"/><path class="j" d="M322.8,216.6h1c.7-.1.5-1.2-.1-1.1h-1c-.7.1-.6,1.2.1,1.1Z"/><path class="j" d="M326.2,203c-.1.5.5,9.9,1.1,10.2s10.8-1.1,11.1-1.2-.4-10.5-.7-10.7S326.3,202.5,326.2,203Z"/><path class="j" d="M338.7,198.4l1.3,16.4c.1.7,1.2.6,1.1-.1-.4-5.5-.9-10.9-1.3-16.4-.1-.7-1.2-.6-1.1.1Z"/><path class="j" d="M325.8,202.1h1c.6-.1.5-1.2-.2-1.1h-1c-.6.1-.5,1.2.2,1.1Z"/><path class="j" d="M328.4,201.7h1c.7-.1.5-1.2-.2-1.1l-.9.2a.5.5,0,1,0,.1,1Z"/><path class="j" d="M331.1,201.3h.9c.7-.1.6-1.2-.1-1.1h-1c-.7.1-.5,1.2.2,1.1Z"/><path class="j" d="M333.7,201h.9c.7-.1.6-1.2-.1-1.1h-1c-.7.1-.5,1.2.2,1.1Z"/><path class="j" d="M336.4,200.7h1c.6-.1.5-1.2-.2-1.1h-1c-.6.1-.5,1.2.2,1.1Z"/><path class="j" d="M327.3,215.9l1-.2a.5.5,0,0,0-.1-1h-1c-.7.1-.6,1.2.1,1.1Z"/><path class="j" d="M329.9,215.5h1c.7-.1.6-1.2-.1-1.1h-1c-.7.1-.5,1.2.1,1.1Z"/><path class="j" d="M332.6,215.1l1-.2a.5.5,0,1,0-.2-1h-.9c-.7.1-.6,1.2.1,1.1Z"/><path class="j" d="M335.2,214.8l1-.2a.5.5,0,1,0-.2-1h-.9c-.7.1-.6,1.2.1,1.1Z"/><path class="j" d="M337.9,214.4h1c.7-.1.5-1.1-.1-1.1l-1,.2a.5.5,0,1,0,.1,1Z"/><path class="j" d="M341.3,200.7c-.1.5.5,9.9,1.2,10.2s10.7-1.1,11.1-1.2-.5-10.5-.7-10.7S341.4,200.2,341.3,200.7Z"/><path class="j" d="M340.9,199.8h1c.7-.1.5-1.2-.2-1.1h-.9c-.7.1-.6,1.2.1,1.1Z"/><path class="j" d="M343.5,199.4h1c.7-.1.5-1.2-.1-1.1l-1,.2a.5.5,0,1,0,.1,1Z"/><path class="j" d="M346.2,199h1c.7-.1.5-1.2-.2-1.1l-.9.2c-.7,0-.6,1.1.1,1Z"/><path class="j" d="M348.8,198.7h1c.6-.1.5-1.2-.2-1.1h-1c-.7.1-.5,1.2.2,1.1Z"/><path class="j" d="M351.5,198.4h1c.7-.1.5-1.2-.2-1.1h-.9c-.7.1-.6,1.2.1,1.1Z"/><path class="j" d="M342.5,213.6l.9-.2a.5.5,0,1,0-.1-1h-1c-.7.1-.5,1.2.2,1.1Z"/><path class="j" d="M345.1,213.2h.9c.7-.1.6-1.2-.1-1.1h-1c-.7.1-.5,1.2.2,1.1Z"/><path class="j" d="M347.7,212.8l1-.2a.5.5,0,1,0-.1-1h-1c-.7.1-.5,1.2.1,1.1Z"/><path class="j" d="M350.3,212.5l1-.2a.5.5,0,0,0-.1-1h-1c-.7.1-.6,1.2.1,1.1Z"/><path class="j" d="M353.1,212.1h.9a.6.6,0,0,0-.1-1.1l-1,.2a.5.5,0,1,0,.2,1Z"/><path class="j" d="M114.2,107.5a9.1,9.1,0,0,1,5.4-3.2,18.3,18.3,0,0,1,4.5-.2,6.1,6.1,0,0,1,2.4.8,2.8,2.8,0,0,1,1.3,1.8,15.1,15.1,0,0,1,.4,4.8l-.8,51.8a25,25,0,0,1-.2,3.3,8.5,8.5,0,0,1-.9,2.5c-1,1.8-3.4,3-7.5,3.6s-6.3.1-7.2-1.4a7.2,7.2,0,0,1-.9-2.4,31.3,31.3,0,0,1-.1-3.4l.5-33.2-1.2,1.3c-2.6,2.3-4.9,3.5-6.7,3.8s-3.7-.6-5.7-2.5-2.9-3.6-2.9-5.3,1.2-3.7,3.5-6l15.8-15.9Z"/><path class="j" d="M134.6,163.6a5,5,0,0,1-1.7-3.5c0-1.1,1-2.7,2.9-4.8a5.5,5.5,0,0,1,3.6-2c1.2-.2,2.9.6,5.1,2.5a7.3,7.3,0,0,0,2.6,1.7,5.4,5.4,0,0,0,3.2.6c4.1-.6,6.2-2.5,6.2-5.8a2.4,2.4,0,0,0-1.6-2.3,10.1,10.1,0,0,0-4.2-.8,27.1,27.1,0,0,1-5.4-.8,26.4,26.4,0,0,1-5.4-1.6,8.3,8.3,0,0,1-4.2-3.7,13.1,13.1,0,0,1-1.6-6.9,16.4,16.4,0,0,1,4.5-10.6,19.4,19.4,0,0,1,12-5.9,21.7,21.7,0,0,1,7.2,0,10.3,10.3,0,0,1,4.5,1.4l1.7,1c1.3,1.1,2,2,2,2.9s-.6,2.1-1.7,3.8-3.1,3.7-4.7,3.9a6,6,0,0,1-3.4-.8l-.8-.6-1-.7a6.5,6.5,0,0,0-3.5-.3,6.6,6.6,0,0,0-3.6,1.5,3.7,3.7,0,0,0-1.5,3,2.8,2.8,0,0,0,1.7,2.7,11.8,11.8,0,0,0,4.1.9,35.6,35.6,0,0,1,5.5.4,40.7,40.7,0,0,1,5.5,1.2,7.9,7.9,0,0,1,4.2,3.5,12.2,12.2,0,0,1,1.5,6.9,16.5,16.5,0,0,1-1.8,7.7,15.9,15.9,0,0,1-4.6,5.6,23.5,23.5,0,0,1-11.5,5,19.6,19.6,0,0,1-5.9.1,12.2,12.2,0,0,1-4.5-1.2,13.4,13.4,0,0,1-4.9-3.4Z"/><path class="j" d="M173,117.3l37-5.2a7.9,7.9,0,0,1,3.1,0,2.3,2.3,0,0,1,1.3,1.4,9.6,9.6,0,0,1,.3,2.7,15.6,15.6,0,0,1-.4,2.7,3.3,3.3,0,0,1-1.2,1.6,8.6,8.6,0,0,1-3.4,1l-12.6,1.8-.6,32.8a12.8,12.8,0,0,1-.1,2.2,7,7,0,0,1-.6,1.7,4,4,0,0,1-1.8,1.6,12,12,0,0,1-3.3.9,9,9,0,0,1-3.3,0,2.1,2.1,0,0,1-1.7-1.1,5.2,5.2,0,0,1-.6-1.6,15.7,15.7,0,0,1,0-2.2l.5-32.7-12.8,1.8a6.1,6.1,0,0,1-3.1-.1,1.9,1.9,0,0,1-1.3-1.3,10.1,10.1,0,0,1-.3-2.7,9.6,9.6,0,0,1,.4-2.7,2.7,2.7,0,0,1,1.1-1.6A9.8,9.8,0,0,1,173,117.3Z"/><path class="j" d="M227.7,89.2l52.7-7.4a9.2,9.2,0,0,1,4.5.1,3,3,0,0,1,1.9,1.9,12.9,12.9,0,0,1,.4,3.8,13.5,13.5,0,0,1-.6,4,4.1,4.1,0,0,1-1.6,2.2,13.5,13.5,0,0,1-4.9,1.5L262,97.8l-.7,46.8a23.3,23.3,0,0,1-.2,3.2,8.5,8.5,0,0,1-.9,2.5,4.8,4.8,0,0,1-2.6,2.2,15.7,15.7,0,0,1-4.7,1.3,19,19,0,0,1-4.7.1,3.1,3.1,0,0,1-2.4-1.6,4.6,4.6,0,0,1-.8-2.3,15,15,0,0,1-.1-3.2l.7-46.7-18.2,2.6a10.1,10.1,0,0,1-4.4-.1,2.8,2.8,0,0,1-1.9-1.9,17.1,17.1,0,0,1,.1-7.8,4.3,4.3,0,0,1,1.7-2.2A12.3,12.3,0,0,1,227.7,89.2Z"/><path class="j" d="M309.6,101.6l17.3,33.8a8,8,0,0,1,1.1,3.2q0,2.3-3.9,4.8a14.2,14.2,0,0,1-3.6,1.6,3.4,3.4,0,0,1-2.1-.3,2.6,2.6,0,0,1-1.2-1.1l-1-1.8-3.3-6.6-18.4,2.6-3.6,7.5c-.4,1-.8,1.6-1,2.1a7.9,7.9,0,0,1-1.3,1.3,3.4,3.4,0,0,1-2.1.9,6.1,6.1,0,0,1-3.5-.6c-2.6-.8-3.8-2-3.8-3.6a9.4,9.4,0,0,1,1.2-3.5L298.9,103a8,8,0,0,1,2.2-2.7,6.8,6.8,0,0,1,3.2-1.3A4.7,4.7,0,0,1,309.6,101.6ZM303.9,118l-4.5,9.5,8.8-1.2Z"/><path class="j" d="M352.8,115.9A168,168,0,0,1,367,128.3c1.4,1.4,2.1,2.6,2.1,3.7s-.9,2.6-2.7,4.3-3.3,2.7-4.4,2.9-2.5-.6-4.1-2.2l-14.3-14.3-.2,12.7c0,1-.1,1.8-.1,2.3a6,6,0,0,1-.7,1.8c-.6,1.2-2.4,2-5.2,2.4s-4.9-.1-5.4-1.7a7,7,0,0,1-.3-3.2l.5-36.2a12.1,12.1,0,0,1,.2-2.3,5.4,5.4,0,0,1,.6-1.8c.7-1.3,2.4-2.1,5.2-2.5s5,.1,5.5,1.7a13.1,13.1,0,0,1,.3,3.3l-.2,12.4c6.1-7.5,11.1-13.6,14.8-18.3,1.6-2,3-3.1,4.1-3.3s2.6.4,4.4,1.6,2.6,2.5,2.6,3.6-.7,2.5-2.1,4.2c-2.6,3.3-6.6,7.8-12.1,13.6Z"/><path class="j" d="M385.9,123.7l20.5-2.9,2.2-.2a4.2,4.2,0,0,1,1.8.4c1.2.4,1.8,2,1.7,4.8s-.9,4.9-2.5,5.7a15.2,15.2,0,0,1-3.5.8L379.8,136c-3.1.4-4.9-.1-5.4-1.7a9.3,9.3,0,0,1-.3-3.3l.5-36.2c.1-2.2.5-3.7,1.4-4.7s2.4-1.5,4.8-1.8l26.1-3.7,2.3-.2a4.5,4.5,0,0,1,1.8.4c1.2.4,1.7,2,1.7,4.8s-.9,4.9-2.6,5.7a14.2,14.2,0,0,1-3.4.8L386.3,99v6.6l13.1-1.9,2.3-.2a4.5,4.5,0,0,1,1.8.4c1.2.4,1.7,2,1.7,4.8s-.9,4.9-2.6,5.7a10.9,10.9,0,0,1-3.5.9l-13,1.8Z"/><path class="e" d="M170.2,189.1c.7.3,1,.7,1,1.1a2.8,2.8,0,0,1-.5,1.2l-4.7,7.1V203a1.4,1.4,0,0,1-.2.6,1,1,0,0,1-.6.5l-1.1.3h-1a.5.5,0,0,1-.5-.3,1.4,1.4,0,0,1-.2-.6V199l-4.3-5.8a1.9,1.9,0,0,1-.5-1,2.8,2.8,0,0,1,1-1.4c.6-.4,1-.7,1.3-.7h.6a2.3,2.3,0,0,1,.7.7l3.1,4.6,3.3-5.5.7-.9.7-.3Z"/><path class="e" d="M179.4,187.3a6.5,6.5,0,0,1,5.3,1.3,6.4,6.4,0,0,1,2.1,5,9,9,0,0,1-2.3,5.8,8.7,8.7,0,0,1-5.4,3,6,6,0,0,1-5.2-1.5,6.2,6.2,0,0,1-2.1-4.9,11.4,11.4,0,0,1,.7-3.2,12.4,12.4,0,0,1,1.7-2.7,11.8,11.8,0,0,1,2.5-1.9A7.2,7.2,0,0,1,179.4,187.3Zm-3.9,8.1a2.9,2.9,0,0,0,1.1,2.7,3.1,3.1,0,0,0,2.6.7,4.5,4.5,0,0,0,3.9-4.5,3,3,0,0,0-1.1-2.8,3.5,3.5,0,0,0-2.6-.7,4.1,4.1,0,0,0-2.7,1.5A4.5,4.5,0,0,0,175.5,195.4Z"/><path class="e" d="M198.2,185.3a.9.9,0,0,1,.6-.6l1-.2h.9l.5.2.3.4a2.5,2.5,0,0,1,.1,1l-.2,6.1a8.3,8.3,0,0,1-1.8,5,8.5,8.5,0,0,1-2.2,2,7.2,7.2,0,0,1-2.9,1,5.2,5.2,0,0,1-2.8-.2,4.3,4.3,0,0,1-2.1-1.4,6.3,6.3,0,0,1-1.5-4.5l.2-6.1v-.7c0-.2.1-.3.2-.6s.3-.3.6-.5l1-.2h1.1a1,1,0,0,1,.5.4,2.2,2.2,0,0,1,.2,1.2v6a3.7,3.7,0,0,0,.5,2.3,1.6,1.6,0,0,0,.9.7,3.4,3.4,0,0,0,1.5.2,3.9,3.9,0,0,0,2.3-1.4,6.1,6.1,0,0,0,.8-2.7v-6.1A1.6,1.6,0,0,1,198.2,185.3Z"/><path class="e" d="M204.3,183.8l11.4-1.7h1c.2,0,.3.2.4.4s.1.4.1.8a1.9,1.9,0,0,1-.2.8.6.6,0,0,1-.3.5l-1.1.4-3.9.5-.3,10.1v.7l-.2.6a.9.9,0,0,1-.6.4,1.7,1.7,0,0,1-1,.3,1.6,1.6,0,0,1-1,0,.6.6,0,0,1-.6-.3.9.9,0,0,1-.1-.5c-.1-.1-.1-.4-.1-.7l.3-10.1-3.9.6a1.6,1.6,0,0,1-1,0l-.4-.4a1.9,1.9,0,0,1-.1-.8c0-.4.1-.7.1-.9a1,1,0,0,1,.4-.5Z"/><path class="e" d="M227.7,181l.5-.5a2.9,2.9,0,0,1,1-.3h1.5l.3.4a3.2,3.2,0,0,1,0,1l-.3,11.2v.7l-.2.5a2,2,0,0,1-1.6.8c-1,.1-1.6,0-1.7-.5a2.8,2.8,0,0,1-.1-1v-4.1l-5.5.8v4.8l-.2.5a2.1,2.1,0,0,1-1.7.8c-.9.2-1.5,0-1.6-.5a2.5,2.5,0,0,1-.1-1l.3-11.2v-.6c.1-.2.1-.4.2-.6a2.1,2.1,0,0,1,1.7-.8c.9-.1,1.5,0,1.7.5v5.1l5.5-.8v-4.8C227.5,181.4,227.5,181.2,227.7,181Z"/><path class="e" d="M250.2,177.2h1.2c.2.1.4.2.4.5a2.5,2.5,0,0,1,.1,1,2.8,2.8,0,0,1-.1,1,1,1,0,0,1-.5.6l-.5.3H250l-6.3.9v2.1l4-.6H249c.4.1.5.7.5,1.5a1.9,1.9,0,0,1-.8,1.8l-1.1.2-4,.6V191c0,.3,0,.6-.1.7a1.4,1.4,0,0,1-.2.6c-.2.4-.7.6-1.6.8s-1.5-.1-1.7-.6-.1-.5-.1-1l.3-11.1a2.6,2.6,0,0,1,.5-1.5,2.1,2.1,0,0,1,1.5-.6Z"/><path class="e" d="M253.3,178.5v-.7a1.4,1.4,0,0,1,.2-.6c.2-.4.8-.6,1.6-.8s1.6.1,1.7.5a3.1,3.1,0,0,1,.1,1.1l-.3,11.1v.7c-.1.2-.1.4-.3.6s-.7.6-1.6.7-1.5,0-1.6-.5a1.5,1.5,0,0,1-.1-1Z"/><path class="e" d="M261.9,187.1l5.6-.8h1c.2.1.4.2.4.4a2.2,2.2,0,0,1,.1.9,1.9,1.9,0,0,1-.1.8.7.7,0,0,1-.4.5l-1.1.4-7.4,1.1c-.9.1-1.5-.1-1.7-.5a3.3,3.3,0,0,1,0-1l.3-11.2V177c0-.2.1-.3.2-.6s.8-.6,1.6-.7,1.6,0,1.7.5a2.5,2.5,0,0,1,.1,1Z"/><path class="e" d="M286.7,172.4c.1.2.2.3.2.5v.7l-.3,11.1c0,1-.3,1.6-.8,1.8l-1,.3h-.9l-.6-.2c-.1,0-.2-.2-.2-.3a3.4,3.4,0,0,1-.1-1.1l.2-6.7-1.6,2.2-1.3,1.9-.4.5a1.1,1.1,0,0,1-.5.4,1.8,1.8,0,0,1-.9.4,1.1,1.1,0,0,1-.8-.1l-.5-.3-.2-.2-1.6-1.9-1.2-1.6-.2,6.8a1.5,1.5,0,0,1-.1.7l-.2.5c-.2.4-.7.7-1.6.8s-1.4,0-1.6-.3a.9.9,0,0,1-.1-.5,1.5,1.5,0,0,1-.1-.7l.4-11.2v-.7l.2-.5a2,2,0,0,1,1.6-.8h1l.5.2h.1l4.5,5.3,4.9-6.6a2.1,2.1,0,0,1,1.7-.8C286,172,286.6,172.1,286.7,172.4Z"/><path class="e" d="M307.1,171.8a4.3,4.3,0,0,1,.5,2.3,5.4,5.4,0,0,1-.6,2.5,6.2,6.2,0,0,1-1.4,1.8,6.2,6.2,0,0,1-3.6,1.8l-2.6.4v2.3c0,.3-.1.5-.1.7l-.2.5c-.2.4-.7.7-1.6.8s-1.5,0-1.7-.5a2.5,2.5,0,0,1-.1-1l.3-11.2c0-.3.1-.5.1-.7l.2-.5c.2-.4.7-.7,1.6-.8l4.4-.6a4.9,4.9,0,0,1,3.5.7A3.7,3.7,0,0,1,307.1,171.8Zm-3.7,4.3a2,2,0,0,0,.6-1.5,1.3,1.3,0,0,0-.6-1.2,2.7,2.7,0,0,0-1.2-.3l-2.6.4v3.6l2.6-.4Z"/><path class="e" d="M320.3,179.1a3.3,3.3,0,0,1,.3,1c0,.5-.4,1-1.3,1.5a3,3,0,0,1-1.1.4.6.6,0,0,1-.6-.1l-.4-.3-1.5-3.4h-.6l-2.6.4V181a1.5,1.5,0,0,1-.1.7,1.7,1.7,0,0,1-.2.5c-.2.4-.7.7-1.6.8s-1.5,0-1.7-.5-.1-.5-.1-1l.3-11.2a2,2,0,0,0,.1-.7l.2-.5a2,2,0,0,1,1.6-.8l4.5-.6a4.9,4.9,0,0,1,3.5.7,6.4,6.4,0,0,1,1.3,1.5,5.6,5.6,0,0,1,.5,2.3,6.3,6.3,0,0,1-1.7,4Zm-7.7-3.9,2.6-.4a3.4,3.4,0,0,0,1.2-.6,2,2,0,0,0,.6-1.5,1.2,1.2,0,0,0-.5-1.2,2.8,2.8,0,0,0-1.3-.3l-2.6.4Z"/><path class="e" d="M329,165.5a6.3,6.3,0,0,1,5.2,1.4,5.7,5.7,0,0,1,2.1,5,8.5,8.5,0,0,1-2.3,5.7,8.2,8.2,0,0,1-5.3,3,6.2,6.2,0,0,1-5.3-1.4,6,6,0,0,1-2-4.9,7.5,7.5,0,0,1,.7-3.3,7.8,7.8,0,0,1,1.7-2.6,8.8,8.8,0,0,1,2.4-1.9A7.3,7.3,0,0,1,329,165.5Zm-4,8.1a3.3,3.3,0,0,0,3.8,3.5,5.4,5.4,0,0,0,2.6-1.5,4.9,4.9,0,0,0,1.3-3.1,3.4,3.4,0,0,0-1.1-2.7,2.9,2.9,0,0,0-2.6-.7,4.5,4.5,0,0,0-2.7,1.4A5.1,5.1,0,0,0,325,173.6Z"/><path class="e" d="M345.6,169.1l3.6-.5c.7-.1,1.2,0,1.3.3a1.8,1.8,0,0,1,.2,1.1v4.4a1.8,1.8,0,0,1-.6,1.3,8.4,8.4,0,0,1-5.2,2.6,6.5,6.5,0,0,1-5.3-1.5,6.1,6.1,0,0,1-2.1-5.2,7.7,7.7,0,0,1,2.4-5.6,9,9,0,0,1,5.5-2.9,6.3,6.3,0,0,1,4.6.9.9.9,0,0,1,.5.8,2.8,2.8,0,0,1-.5,1.2q-.9,1.2-1.5,1.2a1.5,1.5,0,0,1-1.2-.3,3.6,3.6,0,0,0-2.1-.3,5.5,5.5,0,0,0-2.8,1.5,4.2,4.2,0,0,0-1.3,3,3.6,3.6,0,0,0,1.2,2.8,3.8,3.8,0,0,0,2.7.8,6.5,6.5,0,0,0,2.1-.7v-2.2l-1.6.3h-.9c-.2-.1-.3-.2-.3-.4a1.9,1.9,0,0,1-.1-.8c0-.4.1-.7.1-.9a1,1,0,0,1,.4-.5Z"/><path class="e" d="M363.8,172.8a3.3,3.3,0,0,1,.3,1c0,.5-.5,1-1.3,1.5a3.7,3.7,0,0,1-1.1.4H361l-.3-.3a29.2,29.2,0,0,1-1.5-3.4h-.7l-2.6.4v2.3c0,.3-.1.5-.1.7l-.2.5c-.2.4-.7.7-1.6.8s-1.5,0-1.7-.5a2.8,2.8,0,0,1-.1-1l.3-11.2c0-.3.1-.5.1-.7a1.7,1.7,0,0,1,.2-.5c.2-.4.7-.7,1.6-.8l4.5-.7a5.2,5.2,0,0,1,3.4.8,3.4,3.4,0,0,1,1.4,1.5,4.3,4.3,0,0,1,.4,2.3,6.1,6.1,0,0,1-1.6,4Zm-7.8-4,2.7-.4a1.7,1.7,0,0,0,1.2-.6,1.7,1.7,0,0,0,.6-1.4,1.2,1.2,0,0,0-.6-1.2,1.3,1.3,0,0,0-1.2-.3l-2.6.4Z"/><path class="e" d="M374.3,160.1l5.2,10.4c.2.5.4.8.3,1s-.4,1-1.2,1.5l-1.1.5h-.6l-.4-.3a1.6,1.6,0,0,1-.3-.6l-1-2-5.7.8-1.2,2.4a3.3,3.3,0,0,1-.3.6l-.4.4-.6.3a2.3,2.3,0,0,1-1.1-.2c-.8-.2-1.2-.6-1.2-1.1a2.4,2.4,0,0,1,.4-1.1l5.8-12a3.9,3.9,0,0,1,1.7-1.3A1.6,1.6,0,0,1,374.3,160.1Zm-1.8,5.1-1.5,3,2.8-.4Z"/><path class="e" d="M397.4,156.3c.1.2.1.4.2.5v.7l-.3,11.2c-.1.9-.3,1.5-.9,1.7l-.9.3h-1l-.5-.2c-.1,0-.2-.2-.3-.3a3.1,3.1,0,0,1-.1-1.1l.2-6.7-1.6,2.2c-.6,1-1.1,1.6-1.3,1.9l-.3.5-.6.5a1.9,1.9,0,0,1-.8.3,1.4,1.4,0,0,1-.9-.1l-.5-.3-.2-.2-1.5-1.9-1.3-1.6-.2,6.8v.7c-.1.1-.1.3-.2.5a2.3,2.3,0,0,1-1.7.8q-1.2.1-1.5-.3c-.1-.2-.2-.3-.2-.5V171l.3-11.2v-.7c.1-.1.1-.3.3-.5s.7-.6,1.6-.8h.9l.5.2h.2l4.5,5.3c2.4-3.3,4-5.6,4.8-6.6a2.3,2.3,0,0,1,1.7-.8C396.7,155.9,397.2,156,397.4,156.3Z"/><path class="j" d="M169.4,188.4c.6.4.9.7.9,1.2a1.9,1.9,0,0,1-.5,1.1l-4.6,7.1v3.9a1.5,1.5,0,0,1-.1.7.6.6,0,0,1-.2.5.8.8,0,0,1-.5.5,2.9,2.9,0,0,1-1.1.3,1.7,1.7,0,0,1-1,0,.6.6,0,0,1-.6-.3c-.1-.2-.1-.4-.2-.5v-4.5l-4.2-5.9a1.9,1.9,0,0,1-.5-1c0-.4.3-.8,1-1.3s1-.8,1.3-.8h.6a2.2,2.2,0,0,1,.7.7l3.1,4.5,3.3-5.4a2.5,2.5,0,0,1,.7-.9.9.9,0,0,1,.7-.3Q168.5,188,169.4,188.4Z"/><path class="j" d="M178.6,186.6a6.3,6.3,0,0,1,5.2,1.4,5.7,5.7,0,0,1,2.1,5,8.5,8.5,0,0,1-2.3,5.7,8.2,8.2,0,0,1-5.3,3,6.5,6.5,0,0,1-5.3-1.4,6,6,0,0,1-2-5,9.2,9.2,0,0,1,.7-3.2,9.5,9.5,0,0,1,1.7-2.7,10.8,10.8,0,0,1,2.4-1.8A7.9,7.9,0,0,1,178.6,186.6Zm-4,8.1a3.2,3.2,0,0,0,1.2,2.7,3.1,3.1,0,0,0,2.6.8,5.4,5.4,0,0,0,2.6-1.5,4.4,4.4,0,0,0,1.3-3.1,3.1,3.1,0,0,0-1.1-2.7,3.3,3.3,0,0,0-2.6-.8,5.2,5.2,0,0,0-2.7,1.5A5.1,5.1,0,0,0,174.6,194.7Z"/><path class="j" d="M197.3,184.6l.6-.5a2.9,2.9,0,0,1,1-.3,1.7,1.7,0,0,1,1,0h.5a.5.5,0,0,1,.2.4,1.6,1.6,0,0,1,.1,1v6.1a9.8,9.8,0,0,1-1.8,5.1,8.2,8.2,0,0,1-2.2,1.9,7.9,7.9,0,0,1-2.9,1.1,6.9,6.9,0,0,1-2.9-.2,6,6,0,0,1-2-1.4,6.3,6.3,0,0,1-1.5-4.6v-6.1c0-.3.1-.5.1-.7l.2-.5a1,1,0,0,1,.6-.5l1-.3h1.1a.5.5,0,0,1,.5.3,3.7,3.7,0,0,1,.2,1.2l-.2,6.1a4.3,4.3,0,0,0,.6,2.2,2.4,2.4,0,0,0,.9.8,3.2,3.2,0,0,0,1.4.1,3,3,0,0,0,2.3-1.4,5,5,0,0,0,.8-2.6l.2-6.2A2.7,2.7,0,0,1,197.3,184.6Z"/><path class="j" d="M203.4,183.1l11.5-1.6h.9c.2.1.4.2.4.4a1.9,1.9,0,0,1,.1.8,2.2,2.2,0,0,1-.1.9,1,1,0,0,1-.4.5l-1,.3-4,.6-.2,10.1c0,.3-.1.5-.1.7l-.2.5-.5.5-1.1.2h-1a1,1,0,0,1-.5-.4.8.8,0,0,1-.2-.5v-.6l.3-10.1-4,.6h-.9a.4.4,0,0,1-.4-.4,1.7,1.7,0,0,1-.1-.8,1.9,1.9,0,0,1,.1-.8.7.7,0,0,1,.4-.5A2.3,2.3,0,0,1,203.4,183.1Z"/><path class="j" d="M226.8,180.3a1,1,0,0,1,.6-.5l1-.3h.9l.6.2c.1,0,.2.2.2.3a2.8,2.8,0,0,1,.1,1l-.3,11.2v.7c-.1.1-.1.3-.3.5s-.7.7-1.6.8-1.5,0-1.6-.5a1.5,1.5,0,0,1-.1-1v-4.1l-5.5.8v4.1c0,.3,0,.6-.1.7a.7.7,0,0,1-.2.6c-.2.4-.7.6-1.6.7s-1.5,0-1.7-.4a4,4,0,0,1,0-1.1l.3-11.1v-.7a1.4,1.4,0,0,1,.2-.6c.2-.4.8-.6,1.6-.8s1.6.1,1.7.5a3.4,3.4,0,0,1,.1,1.1v4.1l5.4-.8.2-4.1v-.7A1.4,1.4,0,0,1,226.8,180.3Z"/><path class="j" d="M249.3,176.5h1.3a1,1,0,0,1,.4.5,2.8,2.8,0,0,1,.1,1,3.6,3.6,0,0,1-.2,1.1,1,1,0,0,1-.4.5.9.9,0,0,1-.6.3h-.7l-6.3,1v2l4.1-.6h1.3c.3.2.5.7.5,1.5s-.3,1.6-.9,1.8l-1,.3-4.1.6v4.5l-.2.5a2,2,0,0,1-1.6.8c-1,.1-1.6,0-1.7-.5a2.8,2.8,0,0,1-.1-1l.3-11.2a2.1,2.1,0,0,1,.4-1.4,2.6,2.6,0,0,1,1.5-.6Z"/><path class="j" d="M252.4,177.8c0-.3.1-.5.1-.7s.1-.3.2-.6.7-.6,1.6-.7,1.5,0,1.7.5a2.5,2.5,0,0,1,.1,1l-.3,11.1c0,.4-.1.6-.1.8a1.7,1.7,0,0,1-.2.5c-.2.4-.7.7-1.6.8s-1.5-.1-1.7-.5a2.8,2.8,0,0,1-.1-1Z"/><path class="j" d="M261.1,186.5l5.6-.8h1c.2,0,.3.2.4.4a1.9,1.9,0,0,1,.1.8,2,2,0,0,1-.2.9.9.9,0,0,1-.3.5,2.9,2.9,0,0,1-1.1.3l-7.4,1.1c-1,.2-1.5,0-1.7-.5a2.5,2.5,0,0,1-.1-1l.3-11.2a1.5,1.5,0,0,1,.1-.7,1.7,1.7,0,0,1,.2-.5c.2-.4.7-.7,1.6-.8s1.5,0,1.7.5a2.5,2.5,0,0,1,.1,1Z"/><path class="j" d="M285.9,171.7l.2.5v.7l-.3,11.2c0,.9-.3,1.5-.8,1.7l-1,.3h-1.5l-.3-.4c0-.2-.1-.6-.1-1l.2-6.8-1.5,2.2-1.3,1.9-.4.5-.5.5-.9.3a1.1,1.1,0,0,1-.8,0l-.6-.4v-.2l-1.6-1.9a8.3,8.3,0,0,0-1.3-1.5l-.2,6.7v.7a1.4,1.4,0,0,1-.2.6,2.4,2.4,0,0,1-1.6.7c-.9.2-1.4.1-1.6-.3s-.2-.3-.2-.5v-.7l.3-11.1c0-.3,0-.6.1-.7a1.4,1.4,0,0,1,.2-.6c.2-.4.7-.6,1.6-.7h1l.5.2h.1l4.5,5.3,4.8-6.6a2.3,2.3,0,0,1,1.7-.8C285.2,171.3,285.7,171.4,285.9,171.7Z"/><path class="j" d="M306.3,171.2a5.1,5.1,0,0,1,.5,2.2,5.4,5.4,0,0,1-.6,2.5,9.4,9.4,0,0,1-1.4,1.9,7.6,7.6,0,0,1-3.6,1.8l-2.6.3v3c0,.2-.1.3-.2.6s-.8.6-1.6.7-1.6,0-1.7-.5a2.5,2.5,0,0,1-.1-1l.3-11.1v-.7c.1-.2.1-.4.3-.6s.7-.6,1.6-.8l4.4-.6a4.9,4.9,0,0,1,3.5.8A3.2,3.2,0,0,1,306.3,171.2Zm-3.8,4.2a2.3,2.3,0,0,0,.7-1.4,1.5,1.5,0,0,0-.6-1.3,1.7,1.7,0,0,0-1.2-.2l-2.6.3v3.6l2.6-.4Z"/><path class="j" d="M319.5,178.5a2.2,2.2,0,0,1,.3,1c0,.5-.5,1-1.3,1.4l-1.1.5h-.7c-.1-.1-.3-.2-.3-.4a17.8,17.8,0,0,1-1.5-3.4l-.7.2-2.6.3v2.3a5.6,5.6,0,0,1-.1.7,1.4,1.4,0,0,1-.2.6c-.2.4-.7.6-1.6.7s-1.5,0-1.7-.5a2.5,2.5,0,0,1-.1-1l.3-11.1c0-.3,0-.6.1-.7a1.4,1.4,0,0,1,.2-.6c.2-.4.7-.6,1.6-.8l4.4-.6a4.8,4.8,0,0,1,3.5.8,3.4,3.4,0,0,1,1.4,1.5,5.3,5.3,0,0,1,.4,2.3,5.7,5.7,0,0,1-1.6,3.9Zm-7.8-4,2.7-.4a3.4,3.4,0,0,0,1.2-.6,1.8,1.8,0,0,0,.6-1.4,1.5,1.5,0,0,0-.6-1.3,1.7,1.7,0,0,0-1.2-.2l-2.6.3Z"/><path class="j" d="M328.2,164.8a6.4,6.4,0,0,1,5.2,1.4,6.3,6.3,0,0,1,2.1,5,9.2,9.2,0,0,1-2.3,5.8,8.4,8.4,0,0,1-5.3,3,6.3,6.3,0,0,1-7.4-6.4,8.9,8.9,0,0,1,.8-3.2,8.3,8.3,0,0,1,1.7-2.7,8.8,8.8,0,0,1,2.4-1.9A9.4,9.4,0,0,1,328.2,164.8Zm-4,8.2a3.2,3.2,0,0,0,1.1,2.7,3.1,3.1,0,0,0,2.6.7,4.1,4.1,0,0,0,2.7-1.5,4.1,4.1,0,0,0,1.2-3,2.9,2.9,0,0,0-1.1-2.8,3,3,0,0,0-2.6-.7,3.9,3.9,0,0,0-2.6,1.5A4,4,0,0,0,324.2,173Z"/><path class="j" d="M344.7,168.4l3.7-.5c.7-.1,1.2,0,1.3.4a2.7,2.7,0,0,1,.2,1.1v4.4a2.2,2.2,0,0,1-.6,1.3,9.1,9.1,0,0,1-5.3,2.5,6.3,6.3,0,0,1-5.3-1.5,6.6,6.6,0,0,1-2.1-5.1,8.7,8.7,0,0,1,2.5-5.7,9.6,9.6,0,0,1,5.5-2.9,6,6,0,0,1,4.5.9.9.9,0,0,1,.6.8,2.8,2.8,0,0,1-.5,1.2,3.2,3.2,0,0,1-1.5,1.3,3,3,0,0,1-1.3-.4,2.6,2.6,0,0,0-2-.2,4.4,4.4,0,0,0-2.8,1.4,4.1,4.1,0,0,0-1.3,3,3.1,3.1,0,0,0,1.1,2.8,3.2,3.2,0,0,0,2.8.8,4.3,4.3,0,0,0,2-.7v-2.1l-1.6.2h-.9a1,1,0,0,1-.4-.5v-.8a2.8,2.8,0,0,1,.1-.9l.3-.4Z"/><path class="j" d="M363,172.1a3.3,3.3,0,0,1,.3,1c-.1.5-.5,1-1.4,1.5a1.9,1.9,0,0,1-1,.4.8.8,0,0,1-.7-.1l-.4-.3-1.5-3.4h-.6l-2.6.4v3a1.7,1.7,0,0,1-.2.5,2,2,0,0,1-1.6.8c-1,.2-1.6,0-1.7-.5a2.5,2.5,0,0,1-.1-1l.3-11.1v-.7c.1-.2.1-.4.3-.6s.7-.6,1.6-.8l4.4-.6a5.4,5.4,0,0,1,3.5.7,3.7,3.7,0,0,1,1.3,1.5,4.6,4.6,0,0,1,.5,2.3,5.9,5.9,0,0,1-1.6,4A27.4,27.4,0,0,0,363,172.1Zm-7.8-3.9,2.6-.4a3.4,3.4,0,0,0,1.2-.6,2.1,2.1,0,0,0,.7-1.4,1.4,1.4,0,0,0-.6-1.3,2.7,2.7,0,0,0-1.2-.3l-2.6.4Z"/><path class="j" d="M373.4,159.5l5.3,10.4a2.3,2.3,0,0,1,.3.9q0,.8-1.2,1.5l-1.1.5a.8.8,0,0,1-.7-.1l-.3-.3-.3-.5-1.1-2.1-5.7.9-1.1,2.3-.3.6a.8.8,0,0,1-.4.4.9.9,0,0,1-.7.3,2.3,2.3,0,0,1-1.1-.1c-.8-.3-1.1-.7-1.1-1.2a3.3,3.3,0,0,1,.3-1l5.9-12.1a2.7,2.7,0,0,1,.7-.8,2.1,2.1,0,0,1,1-.4A1.3,1.3,0,0,1,373.4,159.5Zm-1.8,5-1.4,3,2.7-.4Z"/><path class="j" d="M396.5,155.6l.2.5v.7l-.3,11.2c0,.9-.3,1.5-.8,1.7l-1,.3h-1.5a.5.5,0,0,1-.2-.4,2.8,2.8,0,0,1-.1-1l.2-6.7a18,18,0,0,0-1.6,2.1l-1.3,1.9-.4.6-.5.4-.9.3h-.8l-.5-.4-.2-.2-1.6-1.9-1.2-1.5-.2,6.7c0,.3,0,.6-.1.7a1.4,1.4,0,0,1-.2.6c-.2.4-.7.6-1.6.7s-1.4.1-1.5-.3-.2-.3-.2-.5a1.6,1.6,0,0,1,0-.7l.3-11.1v-.7a1.4,1.4,0,0,1,.2-.6c.2-.4.8-.6,1.6-.7h1l.5.2h.1l4.6,5.3,4.8-6.6a2.1,2.1,0,0,1,1.7-.8C395.8,155.2,396.4,155.3,396.5,155.6Z"/></g></svg>